<svg width="48" height="48" viewBox="0 0 48 48" fill="none" xmlns="http://www.w3.org/2000/svg">
<rect x="47.5" y="47.5" width="47" height="47" rx="23.5" transform="rotate(180 47.5 47.5)" fill="#00AE00"/>
<rect x="47.5" y="47.5" width="47" height="47" rx="23.5" transform="rotate(180 47.5 47.5)" stroke="white"/>
<path fill-rule="evenodd" clip-rule="evenodd" d="M28.1667 24C28.1667 24.1381 28.1118 24.2706 28.0141 24.3683C27.9164 24.466 27.784 24.5208 27.6458 24.5208L21.6115 24.5208L23.8479 26.7562C23.9457 26.854 24.0007 26.9867 24.0007 27.125C24.0007 27.2633 23.9457 27.3959 23.8479 27.4937C23.7501 27.5915 23.6175 27.6465 23.4792 27.6465C23.3409 27.6465 23.2082 27.5915 23.1104 27.4937L19.9854 24.3687C19.9369 24.3204 19.8984 24.2629 19.8722 24.1996C19.8459 24.1363 19.8324 24.0685 19.8324 24C19.8324 23.9315 19.8459 23.8637 19.8722 23.8004C19.8984 23.7371 19.9369 23.6796 19.9854 23.6312L23.1104 20.5062C23.2082 20.4084 23.3409 20.3535 23.4792 20.3535C23.6175 20.3535 23.7501 20.4084 23.8479 20.5062C23.9457 20.604 24.0007 20.7367 24.0007 20.875C24.0007 21.0133 23.9457 21.1459 23.8479 21.2437L21.6115 23.4792L27.6458 23.4792C27.784 23.4792 27.9164 23.534 28.0141 23.6317C28.1118 23.7294 28.1667 23.8619 28.1667 24Z" fill="white"/>
</svg>
