<svg width="48" height="48" viewBox="0 0 48 48" fill="none" xmlns="http://www.w3.org/2000/svg">
<rect x="0.5" y="0.5" width="47" height="47" rx="23.5" fill="#00AE00"/>
<rect x="0.5" y="0.5" width="47" height="47" rx="23.5" stroke="white"/>
<path fill-rule="evenodd" clip-rule="evenodd" d="M19.8333 24C19.8333 23.8619 19.8882 23.7294 19.9859 23.6317C20.0836 23.534 20.216 23.4792 20.3542 23.4792H26.3885L24.1521 21.2438C24.0543 21.146 23.9993 21.0133 23.9993 20.875C23.9993 20.7367 24.0543 20.6041 24.1521 20.5063C24.2499 20.4085 24.3825 20.3535 24.5208 20.3535C24.6591 20.3535 24.7918 20.4085 24.8896 20.5063L28.0146 23.6313C28.0631 23.6796 28.1016 23.7371 28.1278 23.8004C28.1541 23.8637 28.1676 23.9315 28.1676 24C28.1676 24.0685 28.1541 24.1363 28.1278 24.1996C28.1016 24.2629 28.0631 24.3204 28.0146 24.3688L24.8896 27.4938C24.7918 27.5916 24.6591 27.6465 24.5208 27.6465C24.3825 27.6465 24.2499 27.5916 24.1521 27.4938C24.0543 27.396 23.9993 27.2633 23.9993 27.125C23.9993 26.9867 24.0543 26.8541 24.1521 26.7563L26.3885 24.5208H20.3542C20.216 24.5208 20.0836 24.466 19.9859 24.3683C19.8882 24.2706 19.8333 24.1381 19.8333 24Z" fill="white"/>
</svg>
